<svg xmlns="http://www.w3.org/2000/svg" xmlns:xlink="http://www.w3.org/1999/xlink" contentStyleType="text/css" data-diagram-type="CLASS" height="938px" preserveAspectRatio="none" style="width:833px;height:938px;background:#FFFFFF;" version="1.1" viewBox="0 0 833 938" width="833px" zoomAndPan="magnify"><title>The Garage - Notifications (Class Diagram)</title><defs/><g><g class="title" data-source-line="4"><text fill="#000000" font-family="sans-serif" font-size="14" font-weight="bold" lengthAdjust="spacing" textLength="337.6816" x="241.1294" y="22.9951">The Garage - Notifications (Class Diagram)</text></g><!--class NotificationController--><g class="entity" data-entity="NotificationController" data-source-line="7" data-uid="ent0002" id="entity_NotificationController"><rect fill="#F1F1F1" height="72.5625" rx="2.5" ry="2.5" style="stroke:#181818;stroke-width:0.5;" width="305.7949" x="124.5" y="44.2969"/><ellipse cx="198.3965" cy="64.4297" fill="#ADD1B2" rx="11" ry="11" style="stroke:#181818;stroke-width:1;"/><path d="M201.3652,70.0703 Q200.7871,70.3672 200.1465,70.5078 Q199.5059,70.6641 198.8027,70.6641 Q196.3027,70.6641 194.9746,69.0234 Q193.6621,67.3672 193.6621,64.2422 Q193.6621,61.1172 194.9746,59.4609 Q196.3027,57.8047 198.8027,57.8047 Q199.5059,57.8047 200.1465,57.9609 Q200.8027,58.1172 201.3652,58.4141 L201.3652,61.1328 Q200.7402,60.5547 200.1465,60.2891 Q199.5527,60.0078 198.9277,60.0078 Q197.584,60.0078 196.8965,61.0859 Q196.209,62.1484 196.209,64.2422 Q196.209,66.3359 196.8965,67.4141 Q197.584,68.4766 198.9277,68.4766 Q199.5527,68.4766 200.1465,68.2109 Q200.7402,67.9297 201.3652,67.3516 L201.3652,70.0703 Z " fill="#000000"/><text fill="#000000" font-family="sans-serif" font-size="12" font-style="italic" lengthAdjust="spacing" textLength="74.1035" x="256.5957" y="60.4355">&#171;Controller&#187;</text><text fill="#000000" font-family="sans-serif" font-size="14" lengthAdjust="spacing" textLength="149.502" x="218.8965" y="76.2607">NotificationController</text><line style="stroke:#181818;stroke-width:0.5;" x1="125.5" x2="429.2949" y1="84.5625" y2="84.5625"/><line style="stroke:#181818;stroke-width:0.5;" x1="125.5" x2="429.2949" y1="92.5625" y2="92.5625"/><text fill="#000000" font-family="sans-serif" font-size="14" lengthAdjust="spacing" textLength="293.7949" x="130.5" y="109.5576">+getNotificationHistory(recipientId: Long)</text></g><!--class NotificationService--><g class="entity" data-entity="NotificationService" data-source-line="12" data-uid="ent0003" id="entity_NotificationService"><rect fill="#F1F1F1" height="121.4531" rx="2.5" ry="2.5" style="stroke:#181818;stroke-width:0.5;" width="316.876" x="119" y="177.2969"/><ellipse cx="207.1528" cy="197.4297" fill="#ADD1B2" rx="11" ry="11" style="stroke:#181818;stroke-width:1;"/><path d="M210.1216,203.0703 Q209.5435,203.3672 208.9028,203.5078 Q208.2622,203.6641 207.5591,203.6641 Q205.0591,203.6641 203.731,202.0234 Q202.4185,200.3672 202.4185,197.2422 Q202.4185,194.1172 203.731,192.4609 Q205.0591,190.8047 207.5591,190.8047 Q208.2622,190.8047 208.9028,190.9609 Q209.5591,191.1172 210.1216,191.4141 L210.1216,194.1328 Q209.4966,193.5547 208.9028,193.2891 Q208.3091,193.0078 207.6841,193.0078 Q206.3403,193.0078 205.6528,194.0859 Q204.9653,195.1484 204.9653,197.2422 Q204.9653,199.3359 205.6528,200.4141 Q206.3403,201.4766 207.6841,201.4766 Q208.3091,201.4766 208.9028,201.2109 Q209.4966,200.9297 210.1216,200.3516 L210.1216,203.0703 Z " fill="#000000"/><text fill="#000000" font-family="sans-serif" font-size="12" font-style="italic" lengthAdjust="spacing" textLength="59.1621" x="264.1069" y="193.4355">&#171;Service&#187;</text><text fill="#000000" font-family="sans-serif" font-size="14" lengthAdjust="spacing" textLength="132.0703" x="227.6528" y="209.2607">NotificationService</text><line style="stroke:#181818;stroke-width:0.5;" x1="120" x2="434.876" y1="217.5625" y2="217.5625"/><line style="stroke:#181818;stroke-width:0.5;" x1="120" x2="434.876" y1="225.5625" y2="225.5625"/><text fill="#000000" font-family="sans-serif" font-size="14" lengthAdjust="spacing" textLength="304.876" x="125" y="242.5576">+sendNotification(notification: Notification)</text><text fill="#000000" font-family="sans-serif" font-size="14" lengthAdjust="spacing" textLength="293.7949" x="125" y="258.8545">+getNotificationHistory(recipientId: Long)</text><text fill="#000000" font-family="sans-serif" font-size="14" lengthAdjust="spacing" textLength="242.5049" x="125" y="275.1514">+markAsSent(notificationId: Long)</text><text fill="#000000" font-family="sans-serif" font-size="14" lengthAdjust="spacing" textLength="252.5537" x="125" y="291.4482">+markAsFailed(notificationId: Long)</text></g><!--class EmailSenderAdapter--><g class="entity" data-entity="EmailSenderAdapter" data-source-line="19" data-uid="ent0004" id="entity_EmailSenderAdapter"><rect fill="#F1F1F1" height="72.5625" rx="2.5" ry="2.5" style="stroke:#181818;stroke-width:0.5;" width="236.5469" x="7" y="374.2969"/><ellipse cx="49.1296" cy="394.4297" fill="#ADD1B2" rx="11" ry="11" style="stroke:#181818;stroke-width:1;"/><path d="M52.0984,400.0703 Q51.5203,400.3672 50.8796,400.5078 Q50.239,400.6641 49.5359,400.6641 Q47.0359,400.6641 45.7078,399.0234 Q44.3953,397.3672 44.3953,394.2422 Q44.3953,391.1172 45.7078,389.4609 Q47.0359,387.8047 49.5359,387.8047 Q50.239,387.8047 50.8796,387.9609 Q51.5359,388.1172 52.0984,388.4141 L52.0984,391.1328 Q51.4734,390.5547 50.8796,390.2891 Q50.2859,390.0078 49.6609,390.0078 Q48.3171,390.0078 47.6296,391.0859 Q46.9421,392.1484 46.9421,394.2422 Q46.9421,396.3359 47.6296,397.4141 Q48.3171,398.4766 49.6609,398.4766 Q50.2859,398.4766 50.8796,398.2109 Q51.4734,397.9297 52.0984,397.3516 L52.0984,400.0703 Z " fill="#000000"/><text fill="#000000" font-family="sans-serif" font-size="12" font-style="italic" lengthAdjust="spacing" textLength="84.4805" x="99.0476" y="390.4355">&#171;Component&#187;</text><text fill="#000000" font-family="sans-serif" font-size="14" lengthAdjust="spacing" textLength="144.2588" x="69.1584" y="406.2607">EmailSenderAdapter</text><line style="stroke:#181818;stroke-width:0.5;" x1="8" x2="242.5469" y1="414.5625" y2="414.5625"/><line style="stroke:#181818;stroke-width:0.5;" x1="8" x2="242.5469" y1="422.5625" y2="422.5625"/><text fill="#000000" font-family="sans-serif" font-size="14" lengthAdjust="spacing" textLength="224.5469" x="13" y="439.5576">+send(notification: Notification)</text></g><!--class NotificationRepository--><g class="entity" data-entity="NotificationRepository" data-source-line="24" data-uid="ent0005" id="entity_NotificationRepository"><rect fill="#F1F1F1" height="105.1563" rx="2.5" ry="2.5" style="stroke:#181818;stroke-width:0.5;" width="300.8594" x="279" y="358.2969"/><ellipse cx="347.479" cy="378.4297" fill="#B4A7E5" rx="11" ry="11" style="stroke:#181818;stroke-width:1;"/><path d="M343.4009,374.1953 L343.4009,372.0391 L350.7915,372.0391 L350.7915,374.1953 L348.3228,374.1953 L348.3228,382.2734 L350.7915,382.2734 L350.7915,384.4297 L343.4009,384.4297 L343.4009,382.2734 L345.8696,382.2734 L345.8696,374.1953 L343.4009,374.1953 Z " fill="#000000"/><text fill="#000000" font-family="sans-serif" font-size="12" font-style="italic" lengthAdjust="spacing" textLength="79.1602" x="406.0996" y="374.4355">&#171;Repository&#187;</text><text fill="#000000" font-family="sans-serif" font-size="14" font-style="italic" lengthAdjust="spacing" textLength="155.4014" x="367.979" y="390.2607">NotificationRepository</text><line style="stroke:#181818;stroke-width:0.5;" x1="280" x2="578.8594" y1="398.5625" y2="398.5625"/><line style="stroke:#181818;stroke-width:0.5;" x1="280" x2="578.8594" y1="406.5625" y2="406.5625"/><text fill="#000000" font-family="sans-serif" font-size="14" lengthAdjust="spacing" textLength="223.6514" x="285" y="423.5576">+save(notification: Notification)</text><text fill="#000000" font-family="sans-serif" font-size="14" lengthAdjust="spacing" textLength="263.833" x="285" y="439.8545">+findByRecipientId(recipientId: Long)</text><text fill="#000000" font-family="sans-serif" font-size="14" lengthAdjust="spacing" textLength="288.8594" x="285" y="456.1514">+findByStatus(status: NotificationStatus)</text></g><!--class Notification--><g class="entity" data-entity="Notification" data-source-line="31" data-uid="ent0006" id="entity_Notification"><rect fill="#F1F1F1" height="170.3438" rx="2.5" ry="2.5" style="stroke:#181818;stroke-width:0.5;" width="226.3682" x="316.5" y="523.2969"/><ellipse cx="385.2695" cy="543.4297" fill="#ADD1B2" rx="11" ry="11" style="stroke:#181818;stroke-width:1;"/><path d="M388.2383,549.0703 Q387.6602,549.3672 387.0195,549.5078 Q386.3789,549.6641 385.6758,549.6641 Q383.1758,549.6641 381.8477,548.0234 Q380.5352,546.3672 380.5352,543.2422 Q380.5352,540.1172 381.8477,538.4609 Q383.1758,536.8047 385.6758,536.8047 Q386.3789,536.8047 387.0195,536.9609 Q387.6758,537.1172 388.2383,537.4141 L388.2383,540.1328 Q387.6133,539.5547 387.0195,539.2891 Q386.4258,539.0078 385.8008,539.0078 Q384.457,539.0078 383.7695,540.0859 Q383.082,541.1484 383.082,543.2422 Q383.082,545.3359 383.7695,546.4141 Q384.457,547.4766 385.8008,547.4766 Q386.4258,547.4766 387.0195,547.2109 Q387.6133,546.9297 388.2383,546.3516 L388.2383,549.0703 Z " fill="#000000"/><text fill="#000000" font-family="sans-serif" font-size="12" font-style="italic" lengthAdjust="spacing" textLength="49.8457" x="421.0112" y="539.4355">&#171;Entity&#187;</text><text fill="#000000" font-family="sans-serif" font-size="14" lengthAdjust="spacing" textLength="80.3291" x="405.7695" y="555.2607">Notification</text><line style="stroke:#181818;stroke-width:0.5;" x1="317.5" x2="541.8682" y1="563.5625" y2="563.5625"/><text fill="#000000" font-family="sans-serif" font-size="14" lengthAdjust="spacing" textLength="65.5703" x="322.5" y="580.5576">-id : Long</text><text fill="#000000" font-family="sans-serif" font-size="14" lengthAdjust="spacing" textLength="127.5176" x="322.5" y="596.8545">-recipientId : Long</text><text fill="#000000" font-family="sans-serif" font-size="14" lengthAdjust="spacing" textLength="214.3682" x="322.5" y="613.1514">-recipientEmail : EmailAddress</text><text fill="#000000" font-family="sans-serif" font-size="14" lengthAdjust="spacing" textLength="208.2773" x="322.5" y="629.4482">-content : NotificationContent</text><text fill="#000000" font-family="sans-serif" font-size="14" lengthAdjust="spacing" textLength="164.6094" x="322.5" y="645.7451">-type : NotificationType</text><text fill="#000000" font-family="sans-serif" font-size="14" lengthAdjust="spacing" textLength="186.6279" x="322.5" y="662.042">-status : NotificationStatus</text><text fill="#000000" font-family="sans-serif" font-size="14" lengthAdjust="spacing" textLength="168.6904" x="322.5" y="678.3389">-sentAt : LocalDateTime</text><line style="stroke:#181818;stroke-width:0.5;" x1="317.5" x2="541.8682" y1="685.6406" y2="685.6406"/></g><!--class EmailAddress--><g class="entity" data-entity="EmailAddress" data-source-line="42" data-uid="ent0007" id="entity_EmailAddress"><rect fill="#F1F1F1" height="72.5625" rx="2.5" ry="2.5" style="stroke:#181818;stroke-width:0.5;" width="127.1494" x="75" y="805.7969"/><ellipse cx="90" cy="825.9297" fill="#ADD1B2" rx="11" ry="11" style="stroke:#181818;stroke-width:1;"/><path d="M92.9688,831.5703 Q92.3906,831.8672 91.75,832.0078 Q91.1094,832.1641 90.4063,832.1641 Q87.9063,832.1641 86.5781,830.5234 Q85.2656,828.8672 85.2656,825.7422 Q85.2656,822.6172 86.5781,820.9609 Q87.9063,819.3047 90.4063,819.3047 Q91.1094,819.3047 91.75,819.4609 Q92.4063,819.6172 92.9688,819.9141 L92.9688,822.6328 Q92.3438,822.0547 91.75,821.7891 Q91.1563,821.5078 90.5313,821.5078 Q89.1875,821.5078 88.5,822.5859 Q87.8125,823.6484 87.8125,825.7422 Q87.8125,827.8359 88.5,828.9141 Q89.1875,829.9766 90.5313,829.9766 Q91.1563,829.9766 91.75,829.7109 Q92.3438,829.4297 92.9688,828.8516 L92.9688,831.5703 Z " fill="#000000"/><text fill="#000000" font-family="sans-serif" font-size="12" font-style="italic" lengthAdjust="spacing" textLength="91.5938" x="105.7778" y="821.9355">&#171;Value Object&#187;</text><text fill="#000000" font-family="sans-serif" font-size="14" lengthAdjust="spacing" textLength="95.1494" x="104" y="837.7607">EmailAddress</text><line style="stroke:#181818;stroke-width:0.5;" x1="76" x2="201.1494" y1="846.0625" y2="846.0625"/><text fill="#000000" font-family="sans-serif" font-size="14" lengthAdjust="spacing" textLength="98.6904" x="81" y="863.0576">-value : String</text><line style="stroke:#181818;stroke-width:0.5;" x1="76" x2="201.1494" y1="870.3594" y2="870.3594"/></g><!--class NotificationContent--><g class="entity" data-entity="NotificationContent" data-source-line="46" data-uid="ent0008" id="entity_NotificationContent"><rect fill="#F1F1F1" height="88.8594" rx="2.5" ry="2.5" style="stroke:#181818;stroke-width:0.5;" width="168.0078" x="237.5" y="797.7969"/><ellipse cx="252.5" cy="817.9297" fill="#ADD1B2" rx="11" ry="11" style="stroke:#181818;stroke-width:1;"/><path d="M255.4688,823.5703 Q254.8906,823.8672 254.25,824.0078 Q253.6094,824.1641 252.9063,824.1641 Q250.4063,824.1641 249.0781,822.5234 Q247.7656,820.8672 247.7656,817.7422 Q247.7656,814.6172 249.0781,812.9609 Q250.4063,811.3047 252.9063,811.3047 Q253.6094,811.3047 254.25,811.4609 Q254.9063,811.6172 255.4688,811.9141 L255.4688,814.6328 Q254.8438,814.0547 254.25,813.7891 Q253.6563,813.5078 253.0313,813.5078 Q251.6875,813.5078 251,814.5859 Q250.3125,815.6484 250.3125,817.7422 Q250.3125,819.8359 251,820.9141 Q251.6875,821.9766 253.0313,821.9766 Q253.6563,821.9766 254.25,821.7109 Q254.8438,821.4297 255.4688,820.8516 L255.4688,823.5703 Z " fill="#000000"/><text fill="#000000" font-family="sans-serif" font-size="12" font-style="italic" lengthAdjust="spacing" textLength="91.5938" x="288.707" y="813.9355">&#171;Value Object&#187;</text><text fill="#000000" font-family="sans-serif" font-size="14" lengthAdjust="spacing" textLength="136.0078" x="266.5" y="829.7607">NotificationContent</text><line style="stroke:#181818;stroke-width:0.5;" x1="238.5" x2="404.5078" y1="838.0625" y2="838.0625"/><text fill="#000000" font-family="sans-serif" font-size="14" lengthAdjust="spacing" textLength="111.1934" x="243.5" y="855.0576">-subject : String</text><text fill="#000000" font-family="sans-serif" font-size="14" lengthAdjust="spacing" textLength="95.0742" x="243.5" y="871.3545">-body : String</text><line style="stroke:#181818;stroke-width:0.5;" x1="238.5" x2="404.5078" y1="878.6563" y2="878.6563"/></g><!--class NotificationType--><g class="entity" data-entity="NotificationType" data-source-line="52" data-uid="ent0009" id="entity_NotificationType"><rect fill="#F1F1F1" height="178.375" rx="2.5" ry="2.5" style="stroke:#181818;stroke-width:0.5;" width="194.2324" x="440.5" y="753.2969"/><ellipse cx="476.9049" cy="769.2969" fill="#EB937F" rx="11" ry="11" style="stroke:#181818;stroke-width:1;"/><path d="M481.0143,775.2969 L473.2955,775.2969 L473.2955,762.9063 L481.0143,762.9063 L481.0143,765.0625 L475.7486,765.0625 L475.7486,767.7344 L480.5143,767.7344 L480.5143,769.8906 L475.7486,769.8906 L475.7486,773.1406 L481.0143,773.1406 L481.0143,775.2969 Z " fill="#000000"/><text fill="#000000" font-family="sans-serif" font-size="14" lengthAdjust="spacing" textLength="114.666" x="495.6615" y="774.1436">NotificationType</text><line style="stroke:#181818;stroke-width:0.5;" x1="441.5" x2="633.7324" y1="785.2969" y2="785.2969"/><text fill="#000000" font-family="sans-serif" font-size="14" lengthAdjust="spacing" textLength="147.417" x="446.5" y="802.292">EMAIL_VERIFICATION</text><text fill="#000000" font-family="sans-serif" font-size="14" lengthAdjust="spacing" textLength="164.2334" x="446.5" y="818.5889">PASSWORD_RECOVERY</text><text fill="#000000" font-family="sans-serif" font-size="14" lengthAdjust="spacing" textLength="176.9756" x="446.5" y="834.8857">SUBSCRIPTION_CREATED</text><text fill="#000000" font-family="sans-serif" font-size="14" lengthAdjust="spacing" textLength="182.2324" x="446.5" y="851.1826">SUBSCRIPTION_RENEWED</text><text fill="#000000" font-family="sans-serif" font-size="14" lengthAdjust="spacing" textLength="130.7852" x="446.5" y="867.4795">PACK_PURCHASED</text><text fill="#000000" font-family="sans-serif" font-size="14" lengthAdjust="spacing" textLength="100.3037" x="446.5" y="883.7764">LISTING_SOLD</text><text fill="#000000" font-family="sans-serif" font-size="14" lengthAdjust="spacing" textLength="140.6221" x="446.5" y="900.0732">TRADE_COMPLETED</text><text fill="#000000" font-family="sans-serif" font-size="14" lengthAdjust="spacing" textLength="55.8018" x="446.5" y="916.3701">SYSTEM</text><line style="stroke:#181818;stroke-width:0.5;" x1="441.5" x2="633.7324" y1="923.6719" y2="923.6719"/></g><!--class NotificationStatus--><g class="entity" data-entity="NotificationStatus" data-source-line="63" data-uid="ent0010" id="entity_NotificationStatus"><rect fill="#F1F1F1" height="96.8906" rx="2.5" ry="2.5" style="stroke:#181818;stroke-width:0.5;" width="156.9404" x="670" y="793.7969"/><ellipse cx="685" cy="809.7969" fill="#EB937F" rx="11" ry="11" style="stroke:#181818;stroke-width:1;"/><path d="M689.1094,815.7969 L681.3906,815.7969 L681.3906,803.4063 L689.1094,803.4063 L689.1094,805.5625 L683.8438,805.5625 L683.8438,808.2344 L688.6094,808.2344 L688.6094,810.3906 L683.8438,810.3906 L683.8438,813.6406 L689.1094,813.6406 L689.1094,815.7969 Z " fill="#000000"/><text fill="#000000" font-family="sans-serif" font-size="14" lengthAdjust="spacing" textLength="124.9404" x="699" y="814.6436">NotificationStatus</text><line style="stroke:#181818;stroke-width:0.5;" x1="671" x2="825.9404" y1="825.7969" y2="825.7969"/><text fill="#000000" font-family="sans-serif" font-size="14" lengthAdjust="spacing" textLength="63.9912" x="676" y="842.792">PENDING</text><text fill="#000000" font-family="sans-serif" font-size="14" lengthAdjust="spacing" textLength="36.7568" x="676" y="859.0889">SENT</text><text fill="#000000" font-family="sans-serif" font-size="14" lengthAdjust="spacing" textLength="49.1846" x="676" y="875.3857">FAILED</text><line style="stroke:#181818;stroke-width:0.5;" x1="671" x2="825.9404" y1="882.6875" y2="882.6875"/></g><!--link NotificationController to NotificationService--><g class="link" data-entity-1="NotificationController" data-entity-2="NotificationService" data-source-line="71" data-uid="lnk11" id="link_NotificationController_NotificationService"><path codeLine="71" d="M277.5,117.3569 C277.5,135.0569 277.5,150.9269 277.5,171.0969" fill="none" id="NotificationController-to-NotificationService" style="stroke:#181818;stroke-width:1;"/><polygon fill="#181818" points="277.5,177.0969,281.5,168.0969,277.5,172.0969,273.5,168.0969,277.5,177.0969" style="stroke:#181818;stroke-width:1;"/></g><!--link NotificationService to EmailSenderAdapter--><g class="link" data-entity-1="NotificationService" data-entity-2="EmailSenderAdapter" data-source-line="73" data-uid="lnk12" id="link_NotificationService_EmailSenderAdapter"><path codeLine="73" d="M224.34,298.6069 C201.91,323.8369 180.5358,347.8821 161.1258,369.7221" fill="none" id="NotificationService-to-EmailSenderAdapter" style="stroke:#181818;stroke-width:1;"/><polygon fill="#181818" points="157.14,374.2069,166.1086,370.1369,160.4615,370.4695,160.1288,364.8225,157.14,374.2069" style="stroke:#181818;stroke-width:1;"/></g><!--link NotificationService to NotificationRepository--><g class="link" data-entity-1="NotificationService" data-entity-2="NotificationRepository" data-source-line="74" data-uid="lnk13" id="link_NotificationService_NotificationRepository"><path codeLine="74" d="M330.66,298.6069 C347.96,318.0569 363.004,334.9823 379.714,353.7823" fill="none" id="NotificationService-to-NotificationRepository" style="stroke:#181818;stroke-width:1;"/><polygon fill="#181818" points="383.7,358.2669,380.7107,348.8826,380.3783,354.5297,374.7312,354.1974,383.7,358.2669" style="stroke:#181818;stroke-width:1;"/></g><!--link NotificationRepository to Notification--><g class="link" data-entity-1="NotificationRepository" data-entity-2="Notification" data-source-line="76" data-uid="lnk14" id="link_NotificationRepository_Notification"><path codeLine="76" d="M429.5,463.4169 C429.5,481.7469 429.5,496.8769 429.5,517.2069" fill="none" id="NotificationRepository-to-Notification" style="stroke:#181818;stroke-width:1;"/><polygon fill="#181818" points="429.5,523.2069,433.5,514.2069,429.5,518.2069,425.5,514.2069,429.5,523.2069" style="stroke:#181818;stroke-width:1;"/></g><!--reverse link Notification to EmailAddress--><g class="link" data-entity-1="Notification" data-entity-2="EmailAddress" data-source-line="78" data-uid="lnk15" id="link_Notification_EmailAddress"><path codeLine="78" d="M306.4493,687.4375 C274.3993,709.3875 250.11,727.7469 220.5,753.2969 C202,769.2569 183.29,789.0169 168.41,805.7569" fill="none" id="Notification-backto-EmailAddress" style="stroke:#181818;stroke-width:1;"/><polygon fill="#181818" points="316.35,680.6569,309.1395,680.747,306.4493,687.4375,313.6599,687.3474,316.35,680.6569" style="stroke:#181818;stroke-width:1;"/></g><!--reverse link Notification to NotificationContent--><g class="link" data-entity-1="Notification" data-entity-2="NotificationContent" data-source-line="79" data-uid="lnk16" id="link_Notification_NotificationContent"><path codeLine="79" d="M385.2953,704.2657 C368.8753,739.5357 355.53,768.1969 341.88,797.5169" fill="none" id="Notification-backto-NotificationContent" style="stroke:#181818;stroke-width:1;"/><polygon fill="#181818" points="390.36,693.3869,384.2014,697.1381,385.2953,704.2657,391.454,700.5145,390.36,693.3869" style="stroke:#181818;stroke-width:1;"/></g><!--link Notification to NotificationType--><g class="link" data-entity-1="Notification" data-entity-2="NotificationType" data-source-line="80" data-uid="lnk17" id="link_Notification_NotificationType"><path codeLine="80" d="M468.64,693.3869 C477.7,712.8369 484.8275,728.1475 493.9575,747.7575" fill="none" id="Notification-to-NotificationType" style="stroke:#181818;stroke-width:1;"/><polygon fill="#181818" points="496.49,753.1969,496.3176,743.3495,494.3796,748.6641,489.0651,746.7261,496.49,753.1969" style="stroke:#181818;stroke-width:1;"/></g><!--link Notification to NotificationStatus--><g class="link" data-entity-1="Notification" data-entity-2="NotificationStatus" data-source-line="81" data-uid="lnk18" id="link_Notification_NotificationStatus"><path codeLine="81" d="M542.62,677.1369 C578.63,700.0869 618.03,726.6769 652.5,753.2969 C668.43,765.5969 680.4682,775.9104 695.1582,789.4504" fill="none" id="Notification-to-NotificationStatus" style="stroke:#181818;stroke-width:1;"/><polygon fill="#181818" points="699.57,793.5169,695.6632,784.476,695.8935,790.1282,690.2413,790.3584,699.57,793.5169" style="stroke:#181818;stroke-width:1;"/></g><!--SRC=[bLJHRfim57tdA_osP1FIdgCg4WMdHKi0OTggJyW19_KA1c6dKZRjttUnKO10EYqF0TzpVEuz5r_BTovgsj0IPGMLqb6guVkJOdvM2S9_CVJTiXHN1KF96qCFm3moPAEWKlp0Cwfu9IHQkErUv75w1AMbPNr1RYLKKnK5QomjFDhHW-Zkhb-ir-YtXU3txSZKaF_8fQgQyw9X6Qyv4yhFLsXRYUFI-jCc8wpvu1cJCwaw2F9qRtqIoKG-f2x4OB4QgIp_jonDBsdpxaW2m4XwbhMXl63v3HwODCvm2JGGp5dZvBHMNGFBkXAGPMpjKpkwRJ6hAybR2nONe7MWqAWXhoT0cduno4C_sB_RTk0Ylp_7VPTkTimmYQBg91TIFyQA1khgnm9EvddceqEr1hjKQlCScKncEIXWFgux3P1-EddUC2aD1GP30G6j9aSQeeQYpZMxmXC86T3OGdE-EWBeE4gNbT72euebl6J6yZCjJWo5-vyiKt9uABeImVcGqll_qD4L8Z3VOFPoecOytDIG9nteLNHqN-NdaN3xOKwbj1ZyJthGQU6Tus_JPnpx6zzr4ZyCT3Xo27a9Oo-DiHi2-ggZvEcUkB4VjRJKZR6JO6yAn3Z0BnqGEUwFD7gAtKU7TA6jJn8_U4X9k3M197OydBhXBjhYY-0hIV2kDJ4ftdoXhlm81nw8cJquIFJB1Yo13cpMirMOo_6DrzAwSVdPzdhkihAikHki9K_d_oPrVex7qeFvljuo9gAljZqUXGawDmmZqdK6FH6VChgX-0i0]--></g></svg>